<?xml version="1.0" encoding="UTF-8"?>
<svg id="_Слой_1" data-name="Слой_1" xmlns="http://www.w3.org/2000/svg" viewBox="0 0 1000 1000">
  <defs>
    <style>
      .cls-1 {
        fill: #fff;
      }
    </style>
  </defs>
  <path class="cls-1" d="M372.11,465.61c0,16.31-3.12,31.89-8.8,46.18-4.66,11.74-11.06,22.61-18.89,32.29l-54.16-53.97-2.02-2.02,36.22,11.09c2.78-6.4,4.79-13.21,5.91-20.32.69-4.32,1.04-8.73,1.04-13.24,0-12.49-2.72-24.36-7.6-35.02-5.51-12.06-13.78-22.6-24.01-30.8-7.89-6.34-16.93-11.28-26.79-14.46-8.18-2.65-16.91-4.08-25.97-4.08-3.38,0-6.71.2-9.99.59-1.08.12-2.16.27-3.25.44-13.38,2.11-25.7,7.35-36.21,14.97-8.28,5.99-15.42,13.45-21.04,21.99-6.56,9.93-11.07,21.33-12.92,33.6-.64,4.16-.97,8.42-.97,12.76,0,11.81,2.43,23.05,6.82,33.25,4.83,11.27,12.05,21.27,21.03,29.37,7.51,6.79,16.27,12.26,25.89,16,9.49,3.7,19.83,5.73,30.64,5.73,2.72,0,5.41-.13,8.06-.38,1.57-.14,3.14-.34,4.69-.58,12.27-1.85,23.68-6.36,33.61-12.91l48.32,48.32-35.14-8.79c-4.43,2.41-9.03,4.56-13.77,6.41-14.17,5.58-29.61,8.65-45.77,8.65-5.12,0-10.17-.3-15.13-.91-12.69-1.54-24.79-4.95-36.01-10-9.35-4.19-18.1-9.49-26.05-15.75-9.01-7.07-17.02-15.35-23.79-24.6-15.16-20.69-24.1-46.21-24.1-73.81,0-16.16,3.07-31.6,8.65-45.78,4.21-10.72,9.87-20.74,16.75-29.78,6.15-8.11,13.28-15.45,21.2-21.83,9.68-7.82,20.55-14.21,32.3-18.88,14.28-5.69,29.87-8.8,46.18-8.8,4.54,0,9.03.24,13.43.72,11.62,1.23,22.76,4.07,33.21,8.28,9.51,3.81,18.45,8.77,26.64,14.71,10.15,7.34,19.16,16.18,26.68,26.18,15.76,20.92,25.11,46.97,25.11,75.17Z"/>
  <g>
    <g>
      <path class="cls-1" d="M501.18,527.97v6.39h-3.04c-6.9,0-12.24-2-15.55-7.11-1.98-3.05-5.38-4.9-8.99-4.41-1.99.28-4.11.41-6.37.41-18.88,0-29.53-10.05-29.53-29.23v-51.14c0-19.18,10.66-29.23,29.53-29.23s29.53,10.05,29.53,29.23v51.14c0,8.09-1.91,14.55-5.48,19.29-4.48,5.95-.36,14.6,7.09,14.65.07,0,.15,0,.22,0h2.59ZM467.23,516.86c14.31,0,22.22-7.31,22.22-22.22v-52.36c0-14.92-7.92-22.22-22.22-22.22s-22.22,7.31-22.22,22.22v52.36c0,14.92,7.92,22.22,22.22,22.22Z"/>
      <path class="cls-1" d="M516.4,494.03v-78.85h7.31v79.31c0,14.92,7.76,22.38,21.92,22.38s21.77-7.46,21.77-22.38v-79.31h7.15v78.85c0,18.72-10.2,29.23-29.07,29.23s-29.07-10.66-29.07-29.23Z"/>
      <path class="cls-1" d="M605.23,491.23l-7.55,28.39c-.39,1.48-1.74,2.51-3.27,2.51h0c-2.22,0-3.84-2.1-3.27-4.25l26.52-99.94c.39-1.48,1.74-2.52,3.27-2.52h4.55c1.53,0,2.87,1.03,3.27,2.5l26.94,99.94c.58,2.15-1.04,4.27-3.27,4.27h-.6c-1.53,0-2.87-1.02-3.27-2.5l-7.7-28.4-1-3.69-13.67-50.87c-.9-3.35-5.65-3.34-6.54.01l-14.41,54.55"/>
      <path class="cls-1" d="M674.85,421.57h-19.79c-1.77,0-3.2-1.43-3.2-3.2h0c0-1.77,1.43-3.2,3.2-3.2h53.28c1.77,0,3.2,1.43,3.2,3.2h0c0,1.77-1.43,3.2-3.2,3.2h-19.79c-1.77,0-3.2,1.43-3.2,3.2v93.77c0,1.77-1.43,3.2-3.2,3.2h-.91c-1.77,0-3.2-1.43-3.2-3.2v-93.77c0-1.77-1.43-3.2-3.2-3.2Z"/>
      <path class="cls-1" d="M744.42,421.57h-19.79c-1.77,0-3.2-1.43-3.2-3.2h0c0-1.77,1.43-3.2,3.2-3.2h53.28c1.77,0,3.2,1.43,3.2,3.2h0c0,1.77-1.43,3.2-3.2,3.2h-19.79c-1.77,0-3.2,1.43-3.2,3.2v93.77c0,1.77-1.43,3.2-3.2,3.2h-.91c-1.77,0-3.2-1.43-3.2-3.2v-93.77c0-1.77-1.43-3.2-3.2-3.2Z"/>
      <path class="cls-1" d="M796.77,415.18h27.1c20.09,0,29.38,8.22,29.38,26.03v2.28c0,14.77-5.48,22.38-18.27,24.96v.15c12.79,2.13,18.27,9.74,18.27,24.66v13.85c0,5.02.46,10.66,1.83,14.61h-7.31c-1.07-3.65-1.67-8.37-1.67-14.61v-14.16c0-15.07-6.54-20.85-23.59-20.85h-18.57v49.62h-7.15v-106.55ZM821.89,465.72c16.89,0,24.2-6.24,24.2-20.7v-2.28c0-15.07-6.39-21.16-22.22-21.16h-19.94v44.14h17.96Z"/>
    </g>
    <path class="cls-1" d="M887.43,491.23l-7.55,28.39c-.39,1.48-1.74,2.51-3.27,2.51h0c-2.22,0-3.84-2.1-3.27-4.25l26.52-99.94c.39-1.48,1.74-2.52,3.27-2.52h4.55c1.53,0,2.87,1.03,3.27,2.5l26.94,99.94c.58,2.15-1.04,4.27-3.27,4.27h-.6c-1.53,0-2.87-1.02-3.27-2.5l-7.7-28.4-1-3.69-13.67-50.87c-.9-3.35-5.65-3.34-6.54.01l-14.41,54.55"/>
  </g>
  <rect class="cls-1" x="620.28" y="479.59" width="6.62" height="6.62" rx=".49" ry=".49" transform="translate(524.11 -299.5) rotate(45)"/>
  <rect class="cls-1" x="902.45" y="479.59" width="6.62" height="6.62" rx=".49" ry=".49" transform="translate(606.76 -499.03) rotate(45)"/>
</svg>